<?xml version="1.0" encoding="UTF-8"?>
<!DOCTYPE svg
PUBLIC "-//W3C//DTD SVG 1.1//EN"
       "http://www.w3.org/Graphics/SVG/1.1/DTD/svg11.dtd">
<svg viewBox="58 58 833 652" width="775px" height="594px" xmlns="http://www.w3.org/2000/svg" version="1.1">
   <line x1="665" y1="607" x2="655" y2="607" style="stroke:#cb0;stroke-width:1;"/>
   <line x1="519" y1="103" x2="509" y2="103" style="stroke:#cb0;stroke-width:1;"/>
   <line x1="655" y1="607" x2="519" y2="103" style="stroke:#cb0;stroke-width:1;"/>
   <line x1="657.5" y1="607" x2="661.03553390593" y2="610.53553390593" style="stroke:#cb0;stroke-width:2;"/>
   <line x1="657.5" y1="607" x2="661.03553390593" y2="603.46446609407" style="stroke:#cb0;stroke-width:2;"/>
   <line x1="514" y1="103" x2="517.53553390593" y2="106.53553390593" style="stroke:#cb0;stroke-width:2;"/>
   <line x1="514" y1="103" x2="517.53553390593" y2="99.464466094067" style="stroke:#cb0;stroke-width:2;"/>
   <line x1="665" y1="627" x2="655" y2="627" style="stroke:#c00;stroke-width:1;"/>
   <line x1="610" y1="421" x2="600" y2="421" style="stroke:#c00;stroke-width:1;"/>
   <line x1="655" y1="627" x2="610" y2="421" style="stroke:#c00;stroke-width:1;"/>
   <line x1="657.5" y1="627" x2="661.03553390593" y2="630.53553390593" style="stroke:#c00;stroke-width:2;"/>
   <line x1="657.5" y1="627" x2="661.03553390593" y2="623.46446609407" style="stroke:#c00;stroke-width:2;"/>
   <line x1="605" y1="421" x2="608.53553390593" y2="424.53553390593" style="stroke:#c00;stroke-width:2;"/>
   <line x1="605" y1="421" x2="608.53553390593" y2="417.46446609407" style="stroke:#c00;stroke-width:2;"/>
   <line x1="734" y1="298" x2="744" y2="298" style="stroke:#b0b;stroke-width:1;"/>
   <line x1="828" y1="507" x2="818" y2="507" style="stroke:#b0b;stroke-width:1;"/>
   <line x1="744" y1="298" x2="828" y2="507" style="stroke:#b0b;stroke-width:1;"/>
   <line x1="741.5" y1="298" x2="737.96446609407" y2="301.53553390593" style="stroke:#b0b;stroke-width:2;"/>
   <line x1="741.5" y1="298" x2="737.96446609407" y2="294.46446609407" style="stroke:#b0b;stroke-width:2;"/>
   <line x1="823" y1="507" x2="826.53553390593" y2="510.53553390593" style="stroke:#b0b;stroke-width:2;"/>
   <line x1="823" y1="507" x2="826.53553390593" y2="503.46446609407" style="stroke:#b0b;stroke-width:2;"/>
   <line x1="566" y1="318" x2="556" y2="318" style="stroke:#0bf;stroke-width:1;"/>
   <line x1="519" y1="103" x2="509" y2="103" style="stroke:#0bf;stroke-width:1;"/>
   <line x1="556" y1="318" x2="519" y2="103" style="stroke:#0bf;stroke-width:1;"/>
   <line x1="558.5" y1="318" x2="562.03553390593" y2="321.53553390593" style="stroke:#0bf;stroke-width:2;"/>
   <line x1="558.5" y1="318" x2="562.03553390593" y2="314.46446609407" style="stroke:#0bf;stroke-width:2;"/>
   <line x1="514" y1="103" x2="517.53553390593" y2="106.53553390593" style="stroke:#0bf;stroke-width:2;"/>
   <line x1="514" y1="103" x2="517.53553390593" y2="99.464466094067" style="stroke:#0bf;stroke-width:2;"/>
   <line x1="236" y1="252" x2="246" y2="252" style="stroke:#bbb;stroke-width:1;"/>
   <line x1="655" y1="507" x2="665" y2="507" style="stroke:#bbb;stroke-width:1;"/>
   <line x1="246" y1="252" x2="655" y2="507" style="stroke:#bbb;stroke-width:1;"/>
   <line x1="243.5" y1="252" x2="239.96446609407" y2="255.53553390593" style="stroke:#bbb;stroke-width:2;"/>
   <line x1="243.5" y1="252" x2="239.96446609407" y2="248.46446609407" style="stroke:#bbb;stroke-width:2;"/>
   <line x1="660" y1="507" x2="656.46446609407" y2="510.53553390593" style="stroke:#bbb;stroke-width:2;"/>
   <line x1="660" y1="507" x2="656.46446609407" y2="503.46446609407" style="stroke:#bbb;stroke-width:2;"/>
   <line x1="236" y1="272" x2="246" y2="272" style="stroke:#0b0;stroke-width:1;"/>
   <line x1="345" y1="103" x2="355" y2="103" style="stroke:#0b0;stroke-width:1;"/>
   <line x1="246" y1="272" x2="345" y2="103" style="stroke:#0b0;stroke-width:1;"/>
   <line x1="243.5" y1="272" x2="239.96446609407" y2="275.53553390593" style="stroke:#0b0;stroke-width:2;"/>
   <line x1="243.5" y1="272" x2="239.96446609407" y2="268.46446609407" style="stroke:#0b0;stroke-width:2;"/>
   <line x1="350" y1="103" x2="346.46446609407" y2="106.53553390593" style="stroke:#0b0;stroke-width:2;"/>
   <line x1="350" y1="103" x2="346.46446609407" y2="99.464466094067" style="stroke:#0b0;stroke-width:2;"/>
   <line x1="337" y1="367" x2="347" y2="367" style="stroke:#bbb;stroke-width:1;"/>
   <line x1="655" y1="507" x2="665" y2="507" style="stroke:#bbb;stroke-width:1;"/>
   <line x1="347" y1="367" x2="655" y2="507" style="stroke:#bbb;stroke-width:1;"/>
   <line x1="344.5" y1="367" x2="340.96446609407" y2="370.53553390593" style="stroke:#bbb;stroke-width:2;"/>
   <line x1="344.5" y1="367" x2="340.96446609407" y2="363.46446609407" style="stroke:#bbb;stroke-width:2;"/>
   <line x1="660" y1="507" x2="656.46446609407" y2="510.53553390593" style="stroke:#bbb;stroke-width:2;"/>
   <line x1="660" y1="507" x2="656.46446609407" y2="503.46446609407" style="stroke:#bbb;stroke-width:2;"/>
   <line x1="426" y1="148" x2="436" y2="148" style="stroke:#0b0;stroke-width:1;"/>
   <line x1="486" y1="421" x2="496" y2="421" style="stroke:#0b0;stroke-width:1;"/>
   <line x1="436" y1="148" x2="486" y2="421" style="stroke:#0b0;stroke-width:1;"/>
   <line x1="433.5" y1="148" x2="429.96446609407" y2="151.53553390593" style="stroke:#0b0;stroke-width:2;"/>
   <line x1="433.5" y1="148" x2="429.96446609407" y2="144.46446609407" style="stroke:#0b0;stroke-width:2;"/>
   <line x1="491" y1="421" x2="487.46446609407" y2="424.53553390593" style="stroke:#0b0;stroke-width:2;"/>
   <line x1="491" y1="421" x2="487.46446609407" y2="417.46446609407" style="stroke:#0b0;stroke-width:2;"/>
   <rect width="154" height="20" x="355" y="73" style="fill:#007;stroke:black;"/>
   <text width="154" height="20" x="360" y="87" style="fill:#fff;" font-family="Arial" font-size="16px"> Accounts</text>
   <rect width="154" height="20" x="355" y="93" style="fill:#aea;stroke:black;"/>
   <text width="154" height="20" x="360" y="107" style="fill:black;" font-family="Arial" font-size="16px">AccountID</text>
   <rect width="154" height="20" x="355" y="113" style="fill:none;stroke:black;"/>
   <text width="154" height="20" x="360" y="127" style="fill:black;" font-family="Arial" font-size="16px">Username</text>
   <rect width="154" height="20" x="355" y="133" style="fill:none;stroke:black;"/>
   <text width="154" height="20" x="360" y="147" style="fill:black;" font-family="Arial" font-size="16px">Password</text>
   <rect width="154" height="20" x="355" y="153" style="fill:none;stroke:black;"/>
   <text width="154" height="20" x="360" y="167" style="fill:black;" font-family="Arial" font-size="16px">Role</text>
   <rect width="154" height="20" x="355" y="173" style="fill:none;stroke:black;"/>
   <text width="154" height="20" x="360" y="187" style="fill:black;" font-family="Arial" font-size="16px">PersonalInformation</text>
   <rect width="153" height="20" x="665" y="477" style="fill:#007;stroke:black;"/>
   <text width="153" height="20" x="670" y="491" style="fill:#fff;" font-family="Arial" font-size="16px"> Articles</text>
   <rect width="153" height="20" x="665" y="497" style="fill:#aea;stroke:black;"/>
   <text width="153" height="20" x="670" y="511" style="fill:black;" font-family="Arial" font-size="16px">ArticleID</text>
   <rect width="153" height="20" x="665" y="517" style="fill:none;stroke:black;"/>
   <text width="153" height="20" x="670" y="531" style="fill:black;" font-family="Arial" font-size="16px">Content</text>
   <rect width="153" height="20" x="665" y="537" style="fill:none;stroke:black;"/>
   <text width="153" height="20" x="670" y="551" style="fill:black;" font-family="Arial" font-size="16px">SubmissionDate</text>
   <rect width="153" height="20" x="665" y="557" style="fill:none;stroke:black;"/>
   <text width="153" height="20" x="670" y="571" style="fill:black;" font-family="Arial" font-size="16px">LastModifiedDate</text>
   <rect width="153" height="20" x="665" y="577" style="fill:none;stroke:black;"/>
   <text width="153" height="20" x="670" y="591" style="fill:black;" font-family="Arial" font-size="16px">Status</text>
   <rect width="153" height="20" x="665" y="597" style="fill:none;stroke:black;"/>
   <text width="153" height="20" x="670" y="611" style="fill:black;" font-family="Arial" font-size="16px">SubmitterAccountID</text>
   <rect width="153" height="20" x="665" y="617" style="fill:none;stroke:black;"/>
   <text width="153" height="20" x="670" y="631" style="fill:black;" font-family="Arial" font-size="16px">FacultyID</text>
   <rect width="168" height="20" x="566" y="208" style="fill:#007;stroke:black;"/>
   <text width="168" height="20" x="571" y="222" style="fill:#fff;" font-family="Arial" font-size="16px"> Comments</text>
   <rect width="168" height="20" x="566" y="228" style="fill:#aea;stroke:black;"/>
   <text width="168" height="20" x="571" y="242" style="fill:black;" font-family="Arial" font-size="16px">CommentID</text>
   <rect width="168" height="20" x="566" y="248" style="fill:none;stroke:black;"/>
   <text width="168" height="20" x="571" y="262" style="fill:black;" font-family="Arial" font-size="16px">Content</text>
   <rect width="168" height="20" x="566" y="268" style="fill:none;stroke:black;"/>
   <text width="168" height="20" x="571" y="282" style="fill:black;" font-family="Arial" font-size="16px">CommentDate</text>
   <rect width="168" height="20" x="566" y="288" style="fill:none;stroke:black;"/>
   <text width="168" height="20" x="571" y="302" style="fill:black;" font-family="Arial" font-size="16px">ArticleID</text>
   <rect width="168" height="20" x="566" y="308" style="fill:none;stroke:black;"/>
   <text width="168" height="20" x="571" y="322" style="fill:black;" font-family="Arial" font-size="16px">CommenterAccountID</text>
   <rect width="104" height="20" x="496" y="391" style="fill:#007;stroke:black;"/>
   <text width="104" height="20" x="501" y="405" style="fill:#fff;" font-family="Arial" font-size="16px"> Faculties</text>
   <rect width="104" height="20" x="496" y="411" style="fill:#aea;stroke:black;"/>
   <text width="104" height="20" x="501" y="425" style="fill:black;" font-family="Arial" font-size="16px">FacultyID</text>
   <rect width="104" height="20" x="496" y="431" style="fill:none;stroke:black;"/>
   <text width="104" height="20" x="501" y="445" style="fill:black;" font-family="Arial" font-size="16px">FacultyName</text>
   <rect width="163" height="20" x="73" y="162" style="fill:#007;stroke:black;"/>
   <text width="163" height="20" x="78" y="176" style="fill:#fff;" font-family="Arial" font-size="16px"> Feedback</text>
   <rect width="163" height="20" x="73" y="182" style="fill:#aea;stroke:black;"/>
   <text width="163" height="20" x="78" y="196" style="fill:black;" font-family="Arial" font-size="16px">FeedbackID</text>
   <rect width="163" height="20" x="73" y="202" style="fill:none;stroke:black;"/>
   <text width="163" height="20" x="78" y="216" style="fill:black;" font-family="Arial" font-size="16px">Content</text>
   <rect width="163" height="20" x="73" y="222" style="fill:none;stroke:black;"/>
   <text width="163" height="20" x="78" y="236" style="fill:black;" font-family="Arial" font-size="16px">FeedbackDate</text>
   <rect width="163" height="20" x="73" y="242" style="fill:none;stroke:black;"/>
   <text width="163" height="20" x="78" y="256" style="fill:black;" font-family="Arial" font-size="16px">ArticleID</text>
   <rect width="163" height="20" x="73" y="262" style="fill:none;stroke:black;"/>
   <text width="163" height="20" x="78" y="276" style="fill:black;" font-family="Arial" font-size="16px">ResponderAccountID</text>
   <rect width="90" height="20" x="247" y="277" style="fill:#007;stroke:black;"/>
   <text width="90" height="20" x="252" y="291" style="fill:#fff;" font-family="Arial" font-size="16px"> Images</text>
   <rect width="90" height="20" x="247" y="297" style="fill:#aea;stroke:black;"/>
   <text width="90" height="20" x="252" y="311" style="fill:black;" font-family="Arial" font-size="16px">ImageID</text>
   <rect width="90" height="20" x="247" y="317" style="fill:none;stroke:black;"/>
   <text width="90" height="20" x="252" y="331" style="fill:black;" font-family="Arial" font-size="16px">Path</text>
   <rect width="90" height="20" x="247" y="337" style="fill:none;stroke:black;"/>
   <text width="90" height="20" x="252" y="351" style="fill:black;" font-family="Arial" font-size="16px">Description</text>
   <rect width="90" height="20" x="247" y="357" style="fill:none;stroke:black;"/>
   <text width="90" height="20" x="252" y="371" style="fill:black;" font-family="Arial" font-size="16px">ArticleID</text>
   <rect width="137" height="20" x="289" y="78" style="fill:#007;stroke:black;"/>
   <text width="137" height="20" x="294" y="92" style="fill:#fff;" font-family="Arial" font-size="16px"> Statistics</text>
   <rect width="137" height="20" x="289" y="98" style="fill:#aea;stroke:black;"/>
   <text width="137" height="20" x="294" y="112" style="fill:black;" font-family="Arial" font-size="16px">StatisticID</text>
   <rect width="137" height="20" x="289" y="118" style="fill:none;stroke:black;"/>
   <text width="137" height="20" x="294" y="132" style="fill:black;" font-family="Arial" font-size="16px">NumberOfArticles</text>
   <rect width="137" height="20" x="289" y="138" style="fill:none;stroke:black;"/>
   <text width="137" height="20" x="294" y="152" style="fill:black;" font-family="Arial" font-size="16px">FacultyID</text>
   <rect width="157" height="20" x="586" y="438" style="fill:#007;stroke:black;"/>
   <text width="157" height="20" x="591" y="452" style="fill:#fff;" font-family="Arial" font-size="16px"> TermsAndConditions</text>
   <rect width="157" height="20" x="586" y="458" style="fill:#aea;stroke:black;"/>
   <text width="157" height="20" x="591" y="472" style="fill:black;" font-family="Arial" font-size="16px">TermID</text>
   <rect width="157" height="20" x="586" y="478" style="fill:none;stroke:black;"/>
   <text width="157" height="20" x="591" y="492" style="fill:black;" font-family="Arial" font-size="16px">Content</text>
   <rect width="180" height="20" x="568" y="244" style="fill:#007;stroke:black;"/>
   <text width="180" height="20" x="573" y="258" style="fill:#fff;" font-family="Arial" font-size="16px"> Timings</text>
   <rect width="180" height="20" x="568" y="264" style="fill:#aea;stroke:black;"/>
   <text width="180" height="20" x="573" y="278" style="fill:black;" font-family="Arial" font-size="16px">TimingID</text>
   <rect width="180" height="20" x="568" y="284" style="fill:none;stroke:black;"/>
   <text width="180" height="20" x="573" y="298" style="fill:black;" font-family="Arial" font-size="16px">DeadlineForNewEntries</text>
   <rect width="180" height="20" x="568" y="304" style="fill:none;stroke:black;"/>
   <text width="180" height="20" x="573" y="318" style="fill:black;" font-family="Arial" font-size="16px">FinalClosureDate</text>
</svg>
